<?xml version="1.0" encoding="utf-8"?>
<!-- Generator: Adobe Illustrator 24.1.2, SVG Export Plug-In . SVG Version: 6.00 Build 0)  -->
<svg version="1.1" id="Слой_1" xmlns="http://www.w3.org/2000/svg" xmlns:xlink="http://www.w3.org/1999/xlink" x="0px" y="0px"
	 viewBox="0 0 1920 1080" style="enable-background:new 0 0 1920 1080;" xml:space="preserve">
<style type="text/css">
	.st0{fill:#A62A33;}
	.st1{fill:#111618;}
</style>
<path class="st0" d="M1804.4,495.9c-0.7,1.7-2.2,2.9-3.5,4.1c-5.1,4.8-10.3,9.6-15.4,14.5c-1.9,1.8-3.8,3.6-5.6,5.5
	c-1.4,1.4-1.1,2.5,0.8,2.9c0.6,0.1,1.2,0.1,1.8,0.3c3.7,1.3,4.3,4.6,3.3,7.3c-0.5,1.4-1.6,2.3-3.1,2.7c-1.2,0.3-2.4,0.4-3.6,0.6
	c-2,0.3-4,0.5-5.9,1.1c-6.9,1.8-12.5,5.5-16.6,11.4c-1.4,2-2.7,4-4.1,6c-9.2,13.2-20.3,24.5-33.8,33.3c-12.2,8-25.4,13-39.8,14.9
	c-3,0.4-6,0.6-9,0.6c-9.9,0-19.7,0.3-29.6-0.2c-4.7-0.2-9.2-1-13.7-2c-14.8-3.5-27.8-10.4-39.6-19.8c-7.1-5.7-13.4-12.2-19.2-19.2
	c-1.1-1.4-2.3-2.8-3.5-4.2c-9.3-10.4-20.8-17-34.4-20.1c-5.1-1.2-10.3-1.7-15.6-1.8c-1.4,0-2.8,0-4.2,0c-125.9,0-251.8,0-377.7,0
	c-3.6,0-7.2,0-10.9,0.5c-8.6,1.2-15.5,5.4-20.6,12.5c-2.6,3.6-5,7.3-7.7,10.8c-7.5,9.8-16.2,18.5-26.3,25.7
	c-12.9,9.2-27,15.1-42.7,17.2c-4,0.5-8,0.8-12,0.8c-23.4,0.1-46.7,0-70.1,0c-20.2,0-38.4-6.3-54.8-17.9c-9.5-6.7-17.6-14.7-25-23.6
	c-1.7-2-3.2-4.1-4.8-6.2c-2.2-2.7-4.9-4.7-8.2-6c-7.6-2.8-15.8,0.1-20.3,5.4c-1.5,1.7-2.7,3.5-4.1,5.2c-7.1,9.1-15.2,17.2-24.5,24
	c-11,8-23.1,13.8-36.5,16.8c-5.7,1.3-11.5,2-17.4,2c-9.9,0.1-19.7,0.3-29.6-0.2c-4.5-0.2-8.8-1-13.1-1.9c-13.2-2.9-25-8.7-35.9-16.7
	c-11.2-8.2-20.6-18-28.6-29.3c-2-2.8-3.9-5.6-5.7-8.5c-3-4.8-7-8.3-12-10.7c-1.1-0.5-2.2-1-3.2-1.6c-0.7-0.4-1.6-0.7-2-1.3
	c-1.6-2.4-3.8-2.6-6.3-2.5c-1.2,0.1-2.4,0-3.6,0c-52,0-103.9,0-155.9,0c-1.8,0-3.6,0-5.4,0c-1.7,0-3.1,0.4-4.3,1.8
	c-0.7,0.9-1.8,1.5-2.9,2.1c-1.7,1-3.6,1.9-5.3,2.9c-3.8,2.1-6.8,5-9.1,8.6c-3,4.8-6.3,9.4-9.7,13.8c-7.6,9.8-16.3,18.4-26.4,25.6
	c-10.5,7.4-21.9,12.7-34.4,15.7c-7.1,1.7-14.3,2.3-21.6,2.3c-17.5,0-35.1,0-52.6,0c-5,0-10.1-0.1-15.1,0
	c-21.8,0.2-41.1-6.8-58.4-19.8c-12.9-9.7-23.3-21.6-32-35c-6.4-9.8-11.6-20.3-15.8-31.2c-2.5-6.5-1.9-5.4-7.1-9.3
	c-11.4-8.5-19.7-19.5-25.4-32.5c-3.6-7.9-5.9-16.3-7.5-24.8c-1.4-7.6-2.2-15.1-1.9-22.8c0.1-2.4,0.1-4.8,0-7.3
	c-0.2-7.7,0.6-15.3,1.6-22.9c1.7-12.4,4.2-24.6,7.6-36.6c5.9-20.7,14.9-40,27.3-57.6c12.6-17.8,28-32.7,46-45
	c20.7-14.1,43.4-23.7,67.6-29.8c6.1-1.5,12.2-2.8,18.3-3.8c7.1-1.2,14.1-3.3,21-5.5c16.3-5.2,32.3-11.3,48.2-17.7
	c12.5-5.1,24.8-10.5,37-16.3c7.6-3.7,15.1-7.7,22.4-11.9c11-6.3,22-12.6,33.1-18.9c4.2-2.4,8.5-4.6,12.9-6.7
	c2.3-1.1,4.9-1.9,7.3-2.7c0.9-0.3,2-0.4,3-0.4c2.1,0,3.9,0.8,5.1,2.7c0.6,0.8,1.1,1.7,1.5,2.6c2,4.3,2.7,3.9,6.3,1.4
	c10.2-6.9,20.5-13.5,31.1-19.7c17.9-10.6,36.3-20.1,55.5-28c14.7-6.1,29.8-11.1,45.4-14.4c9.7-2,19.4-3.6,29.3-3.3
	c1.8,0.1,3.6,0.1,5.4,0c12-0.3,23.6,2.1,35,5.8c14.3,4.7,27.3,11.9,39.3,20.9c11.2,8.4,21.1,18.1,30.2,28.6
	c11.6,13.5,21.7,28,30.8,43.3c2.4,4,4.7,8,7,12c0.8,1.4,1.5,2.9,2.1,4.3c2.2,4.7-1.2,10.2-5.8,11.4c-0.8,0.2-1.6,0.4-2.4,0.4
	c-4.4,0.3-8.8,0.8-13.3,0.8c-17.1,0.1-34.2,0.1-51.4,0c-6.6,0-13.3-0.5-19.9-0.8c-3-0.1-6-0.2-9-0.3c-5.8-0.3-11.7-0.6-17.5-0.8
	c-2.6-0.1-5.2-0.2-7.8-0.4c-3.4-0.2-6.8-0.4-10.2-0.6c-8.4-0.5-16.9-1.1-25.3-1.6c-7.8-0.5-15.7-0.9-23.5-1.4
	c-2.2-0.1-4.4-0.4-6.6-0.6c-10-0.7-20.1-1.2-30.1-2.1c-7-0.7-14.1-0.8-21.1-1.8c-3.2-0.5-6.4-0.4-9.6-0.5c-0.6,0-1.1,0.3-1.7,0.5
	c-0.1,0.1-0.2,0.3-0.3,0.5c0,0.2-0.1,0.5,0,0.6c1,0.6,2,1.4,3.1,1.8c4.1,1.6,8.3,3.2,12.5,4.6c19.5,6.6,39.3,11.8,59.5,16
	c12,2.5,24.1,4.9,36.2,6.8c12.5,2,25.1,3.7,37.7,5.4c8.8,1.2,17.6,2.3,26.4,3.3c5.6,0.6,11.2,1,16.8,1.6c6.6,0.6,13.2,1.4,19.8,2
	c2,0.2,4,0.1,6,0.4c8.4,1,16.9,1,25.3,2.1c2,0.3,4,0.1,6,0.2c9.2,0.5,18.5,1.2,27.7,1.6c4.8,0.2,9.6,0.7,14.5,0.8
	c2.4,0.1,4.8,0.2,7.2,0.2c1.4,0,2.8-0.1,4.2,0.1c8,1.1,16.1,0.7,24.1,1.1c3.8,0.2,7.7,0,11.4,0.7c1,0.2,2,0.2,3,0.2
	c9.5,0.1,18.9,0.3,28.5,0.4c-1.1,1.2-2.5,1.2-3.8,1.5c-4.1,0.9-8.3,1.6-12.4,2.7c-14.7,3.8-28.6,9.6-41.5,17.8
	c-16.1,10.2-29.4,23.1-39.4,39.4c-0.5,0.9-1.1,1.7-1.6,2.5c-0.6,0.9-1.5,1.4-2.6,1.2c-1.6-0.3-3.2-0.5-4.7-0.9
	c-14.9-3.6-29.9-6.7-44.9-9.7c-12.8-2.6-25.7-4.9-38.6-7.1c-11.3-1.9-22.6-3.7-34-5.5c-7.4-1.1-14.8-2-22.1-2.9
	c-8.4-1.1-16.8-2.2-25.1-3.1c-5.2-0.6-10.4-1-15.6-1.5c-8-0.7-16-1.4-24-2.1c-0.6-0.1-1.2-0.1-1.8-0.1c-8.6-0.5-17.3-1-25.9-1.5
	c-3.4-0.2-6.8-0.2-10.3-0.3c-1.2,0-2.4,0.1-3.6,0c-7.2-0.8-14.5-0.5-21.7-0.5c-4,0-8.1,0-12.1,0c-4.8,0-9.7,0-14.5,0.5
	c-2.8,0.3-5.6,0.2-8.5,0.3c-6.9,0-13.7,0.2-20.5,1c-2,0.2-4,0.1-6,0.3c-19.5,1.6-38.8,3.9-57.9,8.6c-11,2.7-21.7,6.2-31.9,11.1
	c-9.2,4.3-17.6,9.8-25.1,16.7c-2.7,2.5-5.2,5.1-7.3,8.1c-0.5,0.7-0.6,1.5-0.2,2.3c0.5,1.1,1.1,2.2,1.7,3.2
	c9.1,14.6,15.8,30.3,20.5,46.9c0.4,1.3,0.9,2.7,1.4,4c0.3,0.7,1.5,1,2.1,0.4c1.4-1.2,2.7-2.4,4-3.6c5-4.7,9.8-9.6,14.8-14.2
	c12.8-11.6,27.1-20.9,43-27.6c10.3-4.3,20.9-7.3,31.8-9.3c9.3-1.7,18.7-3.2,28-4.4c14.8-2,29.7-2.5,44.6-1.5
	c8,0.6,15.9,2.2,23.8,4.2c11.9,3,23.5,7.2,34.8,12.1c10,4.3,19.8,9,29.4,14.1c11.3,6,21.6,13.3,31.4,21.5
	c10.5,8.8,20.3,18.4,29.5,28.5c9,9.8,17.4,20.1,25.4,30.8c1.1,1.4,2.1,3,3,4.5c0.2,0.3,0.2,0.9,0,1.1c-0.2,0.3-0.7,0.5-1,0.4
	c-2.1-0.6-4.2-1.3-6.3-2.1c-12-4.7-24.1-9.2-36.3-13.4c-26.6-9.3-53.7-17.2-81.2-23.4c-12.2-2.7-24.5-4.9-36.8-6.8
	c-8.4-1.3-16.8-2-25.2-3.1c-0.8-0.1-1.6-0.1-2.4-0.1c-5.2-0.3-10.4-0.4-15.7-0.9c-4.8-0.4-9.7-0.1-14.5-0.2
	c-8.5-0.2-16.9,1.1-25.3,1.2c-17.9,2-35.4,5.4-52.3,11.9c-1.9,0.7-3.7,1.5-5.5,2.5c-1.3,0.7-2,2-2,3.5c0,1.8,0.9,3.1,2.5,3.8
	c1.5,0.7,3,1.1,4.6,1.5c17.8,4.1,35.7,8.3,53.6,12.3c10.4,2.3,20.9,4.5,31.3,6.6c14,2.8,28,5.5,42.1,8.1c14.6,2.7,29.3,5.4,44,7.9
	c8.5,1.5,17.1,2.8,25.6,4.1c8.9,1.4,17.9,2.9,26.8,4.3c6.6,1,13.1,1.9,19.7,2.9c7,1,13.9,2,20.9,2.9c7.6,1,15.2,2.1,22.7,3.1
	c3.4,0.5,6.8,0.9,10.2,1.4c0.6,0.1,1.2,0.3,1.7,0.5c1,0.4,1.8,1,1.9,2.1c0.2,1,0.3,2,0.2,3c-0.1,4.4-0.2,8.9-0.2,13.3
	c0,2.4-0.1,4.8-0.1,7.3c0,6.2,0,12.5,0,18.7c0,3.4,0.2,6.8-0.6,10.2c-0.2,0.7,0,1.6,0.2,2.4c0.2,0.8,0.8,1.4,1.6,1.7
	c0.8,0.2,1.6,0.4,2.4,0.4c1.8,0.1,3.6,0.1,5.4,0.1c22.6,0,45.1,0,67.7,0c2.8,0,5.6-0.2,8.4-0.5c14.2-1.6,26.1-15.8,23-32.6
	c-0.4-2-1-3.9-1.4-5.9c-2-8.6-3.4-17.4-4.5-26.2c-1.6-13.7-1.3-27.3-0.8-41c0.3-7,1.4-14,2.5-21c2.2-12.9,5.6-25.6,10.3-37.8
	c6.5-17.1,15.3-32.9,26.9-47c8-9.7,17.2-18.1,27.7-25c9.5-6.2,19.8-10.7,30.9-13.2c18.5-4.1,36.4-2.4,53.8,5
	c10.9,4.6,20.6,11,29.4,18.8c9.5,8.5,17.6,18.3,24.5,29c2,3,4,6,6.1,9l-0.1,0.1c0-0.2,0-0.4,0-0.6c-0.3-1.8-1-3.5-1-5.3
	c0-3.2,0.3-6.4,0.6-9.6c0.7-6.4,1.5-12.8,2.3-19.2c0.2-1.8,0.7-3.5,1.1-5.3c0.2-0.7,1.3-1.1,2-0.8c0.9,0.4,1.8,0.8,2.7,1.3
	c4.2,2.5,8.1,5.3,11.9,8.3c10.9,8.4,20.6,18.1,29.8,28.2c11.9,13.2,22.7,27.2,33,41.6c11.5,16,22.4,32.5,33.5,48.8
	c6.5,9.7,13.1,19.3,20.2,28.6c3.2,4.1,6.4,8.3,10.1,12c1.3,1.3,2.6,2.6,3.9,3.8c3.4,3.2,7.4,5.6,11.9,7c4.6,1.4,9.3,2.8,14,3.8
	c7.5,1.5,15,2.8,22.6,3.9c7.6,1.2,15.1,2.2,22.7,3.1c5.8,0.7,11.6,1.2,17.4,1.8c4.2,0.4,8.4,0.9,12.6,1.2
	c11.6,1.1,23.2,2.2,34.9,3.2c7,0.6,14,1,21.1,1.5c2.4,0.2,4.8,0.5,7.2,0.6c7.6,0.5,15.2,1.2,22.9,1.6c6.6,0.3,13.3,0.6,19.9,1.2
	c2.6,0.3,5.2-0.3,7.7-1.2c5.7-2,11.4-4,17.1-5.8c15.8-4.9,31.8-8.8,48.1-11.3c10.3-1.6,20.7-2.8,31.1-3.7c10.6-0.9,21.3-1,32-1.1
	c29.2,0,58.4,0,87.6,0c5.4,0,10.9,0,16.3,0.4c6.2,0.5,12.4,1.3,18.5,2.4c14.7,2.7,29,7,42.6,13.2c4.4,2,8.7,4.2,12.9,6.5
	c2.4,1.3,4.8,1.8,7.5,1.6c10-0.6,20.1-0.7,30.2-1.3c9.8-0.6,19.7-1,29.5-2c7.8-0.8,15.6-1.5,23.4-2.5c2.4-0.3,4.8-0.3,7.2-0.4
	C1804.5,496,1804.4,495.9,1804.4,495.9z M351.8,439.1c0-3.8,0.3-7.7-0.1-11.5c-0.9-10.8-2.2-21.6-4.8-32.2
	c-3.9-15.8-9.7-30.7-18.3-44.5c-5.6-8.9-12.2-17-20.1-24c-7.6-6.7-16.1-12.1-25.7-15.5c-11.7-4.1-23.6-4.8-35.7-2.1
	c-10.8,2.4-20.4,7.3-29.1,14.2c-6.7,5.2-12.6,11.3-17.7,18.1c-6.4,8.4-11.6,17.4-15.8,27.1c-9.3,21.1-13.4,43.4-14,66.4
	c-0.3,9.7,0.5,19.3,1.8,28.9c1.6,12.2,4.5,24.1,8.7,35.7c4.6,12.6,10.7,24.3,18.7,35.1c5.6,7.5,11.9,14.2,19.4,19.8
	c11.2,8.4,23.5,13.8,37.7,14.7c5.9,0.4,11.7,0,17.4-1.1c10-2,19.1-6.3,27.4-12.2c7.3-5.2,13.5-11.4,19.1-18.4
	c8.1-10.1,14.4-21.4,19.2-33.4C348,483.2,351.8,461.5,351.8,439.1z M849.9,438.6c0.1,2.8,0.3,5.6,0.3,8.4c0.3,14,2.7,27.6,6.4,41
	c4.3,15.4,10.8,29.9,19.9,43.1c6.7,9.7,14.6,18.2,24.3,25c11,7.6,22.9,12.5,36.4,13c7.3,0.3,14.5-0.4,21.5-2.4
	c10.2-3,19.2-8.2,27.3-15c9.5-8,17.1-17.6,23.4-28.2c11.3-19,17.4-39.7,20.3-61.5c1.1-8.4,1.6-16.8,1.3-25.3
	c-0.1-4.2-0.1-8.5-0.5-12.7c-0.6-7.6-1.7-15.2-3.2-22.7c-3.4-16.3-8.9-31.8-17.1-46.2c-5-8.8-11-16.8-18.1-24
	c-5.7-5.7-12-10.7-19.1-14.6c-10-5.5-20.7-8.8-32.3-8.5c-1.6,0-3.2-0.1-4.8,0.1c-2.6,0.2-5.2,0.5-7.8,1c-9.2,1.7-17.6,5.5-25.5,10.6
	c-8.8,5.8-16.2,13.2-22.7,21.5c-8.7,11.2-15.2,23.7-20,37.1C853.1,397.7,850,417.9,849.9,438.6z"/>
<path class="st0" d="M836.5,52.6c13.7,0,27.4,0,41.1,0c3.4,0,6.8,0,10.2,0.7c1.2,0.2,2.4,0.2,3.6,0.3c5.2,0.2,10.5,0.3,15.7,0.4
	c0.8,0,1.6,0,2.4,0.1c3.4,0.7,6.8,0.6,10.2,0.8c7.2,0.5,14.5,0.9,21.7,1.6c11,1.1,22,2.1,33,3.5c11.8,1.5,23.5,3.3,35.2,5.3
	c42.8,7.4,84.4,19.2,125.2,33.7c31.5,11.2,62.3,24.2,92.4,38.9c22.6,11,44.9,22.9,66.4,35.8c8.5,5.1,16.7,10.4,25.1,15.7
	c1.2,0.7,2.4,1.5,3.6,2.2c2.7,1.6,5.5,2.4,8.6,2.4c2.8,0,5.7-0.1,8.5,0.1c8.6,0.7,17.3,0.5,25.9,1.3c7,0.6,14.1,0.8,21.1,1.7
	c5.4,0.7,10.8,0.9,16.2,1.6c8,1,16,1.8,24,2.9c10.4,1.4,20.7,3,31,4.7c13.1,2.2,26.1,4.7,39.1,7.7c7.7,1.8,15.3,3.6,22.9,5.5
	c1.9,0.5,3.8,1.2,5.7,1.9c0.7,0.2,1.2,1.4,0.9,2c-0.2,0.6-0.3,1.2-0.6,1.7c-0.7,1.5-1.3,3-2,4.4c-4,7.7-8,15.3-12.1,23
	c-0.4,0.7-0.8,1.4-1.2,2.1c-3.9,7.7-7.8,15.4-11.8,23.1c-3.9,7.5-7.9,14.9-11.8,22.4c-1.3,2.5-2.5,5.1-3.8,7.6
	c-1.9,3.6-3.8,7.1-5.8,10.6c-0.6,1.1-1.6,1.8-3,1.6c-12.8-2.1-25.1-5.6-36.8-11.4c-3.8-1.9-7.3-4.3-10.7-6.8
	c-14.9-11.1-30.2-21.4-46.2-30.8c-25.6-15.1-52.6-27.2-80.8-36.4c-20.3-6.6-41-11.8-61.9-16c-12.6-2.5-25.3-4.8-38.1-6.6
	c-11-1.6-22-2.9-32.9-4.2c-9.8-1.2-19.6-2.3-29.4-3.2c-6.4-0.6-12.9-0.9-19.3-1.5c-8.8-0.9-17.7-1-26.5-2.1
	c-2.4-0.3-4.8-0.2-7.2-0.3c-9-0.5-18.1-1.1-27.1-1.6c-8-0.5-16.1-0.9-24.1-1.1c-0.2,0-0.4,0-0.6,0c-9.2-1.1-18.5-0.9-27.7-1.2
	c-0.6,0-1.2,0-1.8-0.1c-11-1.2-22.1-0.8-33.2-1.1c-2.6-0.1-5.2,0-7.8-0.5c-1.4-0.3-2.8-0.2-4.2-0.2c-14.3-0.1-28.6-0.3-42.9-0.4
	c-4.4,0-8.9,0.2-13.3-0.7c-1.2-0.2-2.4-0.1-3.6-0.2c-15.4-0.9-30.4-3.6-44.9-8.8c-7.4-2.7-14.4-6.2-21-10.6
	c-7.3-4.8-13.6-10.7-19.3-17.2c-4-4.5-7.9-9.2-11.9-13.7c-14.2-16-29.5-30.9-46.6-43.8c-12.9-9.8-26.5-18.3-41.4-24.7
	c-4.8-2.1-9.8-3.8-14.6-5.7c-1.3-0.5-2.7-1-3.9-1.7c-1.7-1.1-2.2-2.8-1.9-4.7c0.2-1.8,1.4-2.9,2.9-3.5c0.9-0.4,2-0.5,2.9-0.6
	c6-0.5,12-1,18-1.5c6.2-0.5,12.5-0.7,18.7-1.3c6.4-0.6,12.8-0.9,19.3-1.1c0.2,0,0.4,0,0.6,0c8.8-1.1,17.7-1.1,26.5-1.2
	c1,0,2,0,3-0.2c4.4-0.9,8.8-0.7,13.3-0.7C810.7,52.6,823.6,52.6,836.5,52.6z"/>
<path class="st1" d="M476.2,848.9c10.3,0,20.5,0,30.8,0c7.5,0,14.9,1,22.1,2.8c5.3,1.3,10.3,3.3,15.1,6c4.6,2.6,8.7,5.9,12.1,9.9
	c4.7,5.5,7.6,11.8,8.9,18.9c0.8,4.4,1.4,8.8,1.1,13.2c-0.5,6.4-1.2,12.8-3.3,19c-4.4,13-12.8,22.6-25,28.9c-1.8,0.9-3.7,1.6-5.5,2.5
	c-0.7,0.3-1.4,0.7-2.2,1.1c-0.7,0.4-1.1,1.4-0.9,2.1c0.4,1.1,0.8,2.3,1.3,3.4c6.1,12.7,12.1,25.4,18.2,38.2c3,6.2,5.9,12.3,8.9,18.5
	c0.4,0.9,1,1.7,1.6,2.5c0.3,0.4,1.3,0.4,1.6,0c0.8-0.9,1.6-1.8,2.2-2.8c2.7-4.3,5.3-8.6,7.9-12.9c29.4-47.9,58.8-95.8,88.2-143.6
	c1.3-2.1,2.6-4.1,4-6.1c0.5-0.7,1.2-1.1,2-1.2c1.2-0.1,2.4-0.3,3.6-0.3c16.3,0,32.6,0,48.9,0c0.4,0,0.8,0,1.2,0
	c3.9,0.1,5.2,0.4,5.9,5.1c1,6.4,2.2,12.7,3.3,19c1.8,10.3,3.6,20.6,5.4,30.9c1.8,10.3,3.6,20.6,5.4,30.9c2.7,15.5,5.4,30.9,8.2,46.4
	c2,11.7,4.1,23.4,6.1,35.1c0.1,0.4,0.1,0.8,0.2,1.2c0.4,2.9-0.7,4.1-3.6,4.3c-1.4,0.1-2.8,0.1-4.2,0.1c-14.1,0-28.2,0-42.3,0
	c-1.8,0-3.6-0.1-5.4-0.3c-1.4-0.1-2.5-1.2-2.9-2.7c-0.4-2-0.8-3.9-1.1-5.9c-0.6-3.6-1-7.2-1.6-10.8c-0.3-1.6-0.7-3.1-1.2-4.7
	c-0.2-0.8-0.9-1.3-1.8-1.4c-1.2-0.1-2.4-0.2-3.6-0.2c-15.3,0-30.6,0-45.9,0c-1,0-2,0-3,0.1c-1.1,0.1-1.9,0.6-2.5,1.5
	c-0.9,1.3-1.7,2.7-2.5,4.1c-2.5,4.6-5,9.2-7.5,13.8c-3.6,6.7-3.3,6.4-10.7,6.5c-25.4,0-50.8,0-76.1,0c-10.3,0-20.5,0-30.8,0
	c-2,0-4-0.1-6-0.2c-1.8-0.1-3.1-0.9-3.7-2.6c-0.8-1.9-1.5-3.7-2.2-5.6c-5.9-15.7-11.7-31.3-17.5-47c-0.8-2.1-1.6-4.1-2.5-6.2
	c-0.5-1.2-1.6-1.8-2.9-1.8c-0.6,0-1.2,0-1.8,0c-1.4,0.1-2.4,0.9-2.7,2c-0.4,1.6-0.7,3.1-1,4.7c-1.8,10.3-3.5,20.6-5.2,31
	c-1.1,6.8-2.3,13.5-3.5,20.2c-0.2,1-0.4,2-0.7,2.9c-0.4,1-1.1,1.8-2.1,1.9c-1.4,0.2-2.8,0.4-4.2,0.4c-3.4,0.1-6.8,0-10.3,0
	c-9.7,0-19.3,0-29,0c-2,0-4-0.1-6-0.3c-1.8-0.2-2.8-1.5-2.5-3.4c0.4-2.6,0.8-5.2,1.2-7.7c3.2-18,6.4-36.1,9.6-54.1
	c3.8-21.6,7.7-43.2,11.6-64.8c2.1-12.1,4.2-24.2,6.4-36.3c0.2-1.4,0.6-2.8,1-4.1c0.4-1.3,1.2-2.1,2.6-2.2c2-0.1,4-0.2,6-0.2
	C452.8,848.9,464.5,848.9,476.2,848.9z M482.9,923.1c4.2,0,8.4-0.5,12.6-1.3c2.2-0.4,4.3-1.1,6.3-2.1c5.8-2.7,8.4-7.7,7.9-14.2
	c-0.3-5.1-2.9-8.6-7.9-10.2c-1-0.3-1.9-0.6-2.9-0.8c-2.6-0.4-5.1-0.9-7.7-1.1c-3-0.2-6-0.1-9,0.1c-1.3,0.1-2.2,0.9-2.5,2.2
	c-0.4,1.4-0.8,2.7-1,4.1c-1.1,6.3-2.2,12.6-3.2,18.9c-0.1,0.6-0.1,1.2-0.2,1.8c-0.1,0.9,0.8,2,1.8,2.1
	C478.9,922.9,480.9,923,482.9,923.1z M672.3,952.5c0,0,0,0.1,0,0.1c3,0,6,0,9,0c1.2,0,2.4-0.3,3.6-0.5c0.6-0.1,1.5-1.1,1.5-1.7
	c0-1.4,0.1-2.8-0.1-4.2c-1.1-9.8-2.2-19.5-3.4-29.3c-0.2-1.8-0.4-3.6-1.3-5.2c-0.2-0.4-0.6-0.5-1-0.2c-1.4,0.9-2,2.4-2.8,3.8
	c-3.3,5.9-6.6,11.9-9.9,17.9c-2.6,4.7-5.3,9.4-7.9,14.2c-0.6,1-0.9,2.2-1.2,3.4c-0.1,0.3,0.2,0.8,0.5,1c0.7,0.3,1.5,0.7,2.2,0.7
	C665.1,952.6,668.7,952.5,672.3,952.5z"/>
<path class="st0" d="M1634.5,455.9c-8.4,0-19.1,0-29.7,0c-3,0-6,0-9,0.5c-1.8,0.3-3.6,0.2-5.4,0.2c-15.3,0-30.6,0-45.9,0
	c-2.2,0-4.4-0.3-6.6-0.4c-2.4-0.1-4.8-0.3-7.2-0.3c-13.1-0.1-26.2-0.1-39.3-0.1c-9.1-0.1-18.1-0.1-27.2-0.3c-2.8,0-5.6-0.4-8.4-0.5
	c-1.8-0.1-3.6-0.2-5.4-0.3c-9.9-0.1-19.7-0.3-29.6-0.4c-1,0-2,0-3-0.1c-8.6-1.1-17.3-0.6-25.9-1.1c-2.6-0.1-5.2-0.3-7.8-0.5
	c-1.2-0.1-2.4-0.3-3.6-0.3c-5.2-0.2-10.5-0.3-15.7-0.4c-0.8,0-1.6,0.1-2.4-0.1c-6.8-1-13.7-0.7-20.5-1.2c-4.6-0.4-9.2-0.7-13.8-1
	c-7.2-0.5-14.5-0.8-21.7-1.4c-6.4-0.5-12.8-1.2-19.2-1.8c-6.4-0.6-12.8-1.1-19.2-1.7c-3.6-0.3-7.2-0.7-10.8-1.2
	c-11-1.4-22-2.8-32.9-4.5c-2.9-0.5-4.7-1.9-6-4.4c-2-4-4.1-7.9-6.1-11.8c-4.5-8.8-9.1-17.5-13.6-26.3c-0.5-1.1-1-2.2-1.5-3.3
	c-0.4-1,0.4-2.1,1.4-2.1c2.8,0.1,5.6,0.3,8.4,0.4c0.6,0,1.2,0.2,1.8,0.3c9,0.6,18.1,1.2,27.1,1.8c3,0.2,6,0.6,9,0.8
	c6.2,0.4,12.5,0.8,18.7,1.1c3.6,0.2,7.2,0.3,10.9,0.5c5,0.3,10,0.6,15.1,0.9c1.2,0.1,2.4,0.2,3.6,0.2c7,0.3,14.1,0.7,21.1,1
	c1.4,0.1,2.8,0.2,4.2,0.2c4,0.1,8,0.2,12.1,0.5c6.4,0.5,12.9,0.5,19.3,0.7c3.6,0.1,7.2-0.1,10.9,0.5c0.6,0.1,1.2,0.1,1.8,0.1
	c8.5,0.2,16.9,0.4,25.4,0.6c4,0.1,8.1-0.1,12.1,0.5c1,0.1,2,0.1,3,0.1c8.1,0.2,16.1,0.4,24.2,0.5c6.6,0.1,13.3,0.1,19.9,0.1
	c12.1,0.1,24.2,0,36.2,0.3c22.1,0.6,44.3,0.3,66.5,0.3c12.7,0,25.4-0.4,38-0.6c5.4-0.1,10.9,0,16.3-0.1c11.1-0.1,22.1-0.3,33.2-0.5
	c1.8,0,3.6-0.2,5.4-0.3c1.2-0.1,2.4-0.3,3.6-0.3c8.3,0,16.5-0.2,24.8-0.6c3.2-0.2,6.4-0.3,9.6-0.5c0.8,0,1.6-0.1,2.4-0.1
	c6.6-0.2,13.3-0.3,19.9-0.6c9.8-0.5,19.7-1.1,29.5-1.7c4.2-0.2,8.4-0.4,12.7-0.6c8.2-0.5,16.5-1.2,24.7-1.8
	c6.6-0.5,13.2-0.9,19.9-1.4c2.8-0.2,5.6-0.6,8.4-0.8c0.7-0.1,1.6,0.9,1.5,1.6c-0.2,1.2-0.4,2.4-0.8,3.5c-3.3,9.7-6.6,19.4-9.9,29.2
	c-2.1,6.1-4.2,12.2-6.2,18.3c-0.4,1.1-0.8,2.3-1.3,3.4c-0.5,1.2-1.5,1.9-2.7,2.1c-0.4,0.1-0.8,0.1-1.2,0.1
	c-9.4,0.4-18.8,1.6-28.3,1.6c-0.6,0-1.2,0-1.8,0c-8.8,1.1-17.7,0.9-26.5,1.2c-1,0-2,0-3,0.2c-4,0.8-8,0.6-12,0.7
	c-8.3,0.1-16.5,0.3-24.8,0.4c-0.4,0-0.8,0-1.2,0c-7.4,1.1-14.9,0.7-22.3,0.8C1650.5,455.7,1643.7,455.8,1634.5,455.9z"/>
<path class="st1" d="M901.3,1022.1c-7,0-14.1,0-21.1,0c-6.8,0-6.8-0.1-9.3-6.3c-9.4-23.6-18.8-47.1-28.2-70.7c-0.8-2-1.4-4.2-2.8-6
	c-0.1-0.1-0.4-0.3-0.5-0.2c-0.3,0.1-0.8,0.2-1,0.5c-0.4,0.7-0.8,1.4-0.9,2.2c-1.8,11.3-3.5,22.7-5.2,34c-1.8,11.5-3.7,23-5.6,34.6
	c-0.5,3-1,6-1.5,8.9c-0.4,1.9-1.4,2.7-3.4,2.9c-1.4,0.1-2.8,0.2-4.2,0.2c-13.3,0-26.6,0-39.9,0c-1.8,0-3.6-0.2-5.4-0.4
	c-1.2-0.1-2.1-1.4-1.9-2.7c0.5-3.2,1-6.4,1.5-9.5c2.3-13.1,4.6-26.2,6.9-39.3c1.7-9.5,3.4-19,5.1-28.5c1.4-8.1,2.9-16.2,4.3-24.4
	c1.8-10.1,3.6-20.2,5.3-30.3c1.5-8.3,3-16.7,4.4-25c0.5-2.8,0.9-5.6,1.5-8.3c0.1-0.8,0.5-1.5,0.7-2.3c0.4-1.2,1.3-2.1,2.6-2.2
	c1.8-0.1,3.6-0.2,5.4-0.2c9.1,0,18.1,0,27.2,0c4.4,0,8.9,0,13.3,0c1.6,0,3.2,0.1,4.8,0.1c1.8,0,3,1,3.7,2.7c0.5,1.1,0.9,2.2,1.4,3.4
	c4.6,11.8,9.2,23.7,13.8,35.5c5.5,14.3,11.1,28.5,16.6,42.8c0.4,1.1,0.7,2.3,1.7,3.1c0.3,0.2,0.7,0.3,1.1,0.3c0.1,0,0.4-0.2,0.4-0.4
	c0.4-1.8,1-3.5,1.2-5.3c2.4-15.1,4.8-30.2,7.2-45.3c1.7-10.7,3.4-21.5,5-32.2c0.6-4,2-4.4,5.1-4.6c1-0.1,2-0.1,3-0.1
	c13.5,0,27,0,40.5,0c7.3,0,7.3,0.3,6.2,7.1c-3.1,18.1-6.3,36.1-9.5,54.1c-3.8,21.6-7.7,43.2-11.6,64.8c-2.5,14.1-5,28.1-7.5,42.2
	c-0.1,0.8-0.3,1.6-0.5,2.3c-0.4,1.2-1.3,2.1-2.6,2.2c-1.8,0.2-3.6,0.3-5.4,0.3C915.8,1022.2,908.5,1022.1,901.3,1022.1L901.3,1022.1
	z"/>
<path class="st1" d="M1008,1022.1c-13.5,0-27,0-40.5,0c-2,0-4-0.2-6-0.3c-0.9-0.1-1.9-1.2-1.8-2.1c0.1-1.8,0.2-3.6,0.5-5.4
	c1.6-9.1,3.2-18.2,4.9-27.3c1.9-10.5,3.8-21,5.6-31.5c2.7-15.4,5.5-30.9,8.2-46.4c2.2-12.3,4.3-24.6,6.4-36.9
	c1.1-6.3,2.3-12.7,3.5-19c0.1-0.8,0.3-1.6,0.7-2.3c0.4-1,1.1-1.7,2.2-1.8c2-0.2,4-0.3,6-0.3c17.7,0,35.4,0,53.1,0
	c4.8,0,9.7-0.1,14.5,0c11.4,0.2,22.4,2.3,33,6.3c8,3,15.4,7.1,21.9,12.6c10.9,9.2,18.5,20.6,22.1,34.5c1.3,4.9,1.9,9.9,2.1,14.9
	c0.6,11.9-0.3,23.7-3.6,35.3c-7.2,25.3-22.6,44.2-45.7,56.6c-10.7,5.8-22.1,9.5-34.2,11.5c-6.2,1-12.4,1.6-18.6,1.6
	C1030.9,1022.1,1019.4,1022.1,1008,1022.1z M1035.6,973.6c5,0,10,0.1,15-0.9c11.4-2.3,20.5-8,27.1-17.6c4.5-6.4,6.7-13.7,7.6-21.4
	c0.7-6.3,0.1-12.5-2.2-18.4c-2.1-5.4-5.5-9.8-10.3-13c-4.3-2.8-9-4.5-14.1-5.2c-5.6-0.7-11.2-0.9-16.9-0.7c-1.2,0.1-2.4,0.2-3.6,0.4
	c-0.8,0.1-1.5,0.6-1.8,1.4c-0.4,0.9-0.7,1.9-0.9,2.9c-1.6,8.9-3.2,17.8-4.8,26.7c-2.3,13.1-4.7,26.1-7,39.2
	c-0.2,1.2-0.3,2.4-0.4,3.6c-0.1,1.5,1,2.6,2.5,2.8c0.8,0.1,1.6,0.2,2.4,0.2C1030.8,973.6,1033.2,973.6,1035.6,973.6z"/>
<path class="st1" d="M352,915.4c10.1,0,20.1,0,30.2,0c1.6,0,3.2,0,4.8,0.1c2.8,0.1,3.7,1.1,3.4,3.7c-0.2,1.8-0.5,3.6-0.8,5.4
	c-3.2,18.2-6.4,36.5-9.6,54.7c-1.5,8.7-3.1,17.4-4.7,26.1c-0.1,0.8-0.3,1.6-0.5,2.4c-0.4,1.4-1,2.6-2.4,3.3
	c-1.6,0.8-3.2,1.7-4.9,2.4c-12.7,5.8-25.9,10.2-39.7,12.3c-6,0.9-11.9,1.8-18,1.5c-1.6-0.1-3.2,0-4.8,0c-13,0-25.6-2.4-37.8-6.9
	c-7.4-2.7-14.3-6.5-20.4-11.5c-13.4-10.9-21.3-24.9-24.3-41.9c-1.4-7.8-1.6-15.6-1.2-23.5c0.7-14.3,3.9-27.9,9.9-40.8
	c14.4-30.4,38.1-49.3,70.8-56.8c4.7-1.1,9.5-1.8,14.4-1.8c6.6,0,13.3-0.2,19.9,0.2c13.6,0.9,26.6,4.2,38.7,10.7
	c5,2.7,9.6,5.9,13.6,10c0.6,0.6,1,1.2,1.5,1.9c0.4,0.6,0.4,1.7,0,2.3c-0.6,0.8-1.2,1.6-1.9,2.3c-6.1,6.4-12.2,12.9-18.3,19.3
	c-4.3,4.5-8.6,9-12.9,13.6c-0.7,0.7-1.4,1.4-2.2,2.1c-0.8,0.8-2,0.8-2.7,0.1c-1-1-1.9-2.1-2.9-3c-4.3-4.2-9.3-7.1-15.1-8.3
	c-14.1-2.9-26.8,0.1-37.6,9.8c-8.3,7.4-12.9,16.9-15.1,27.6c-0.8,4.1-1.4,8.3-1.2,12.6c0.1,4.7,1,9.2,2.6,13.6
	c1.2,3.2,3,6.2,5.1,8.8c2.4,3.1,5.5,5.3,9,6.9c3.7,1.6,7.6,2.8,11.7,2.9c1,0,2,0,3,0.2c5.1,0.7,10-0.2,14.9-1.2
	c0.6-0.1,1.2-0.3,1.7-0.5c1-0.4,1.7-1,2.1-2.1c0.4-1.1,0.8-2.3,0.9-3.5c0.3-2.8,1.3-5.5,1.2-8.4c0-0.6-0.9-1.7-1.5-1.7
	c-1.4-0.1-2.8-0.3-4.2-0.3c-5,0-10.1,0-15.1,0c-1.2,0-2.4,0-3.6-0.1c-1.9-0.1-3-1.4-2.7-3.2c0.3-1.8,0.6-3.6,0.9-5.4
	c1.7-9.5,3.3-19,5-28.5c0.2-1.2,0.5-2.4,0.8-3.5c0.7-3,1.4-3.6,4.5-3.7c1.8-0.1,3.6-0.1,5.4-0.1C331.9,915.4,342,915.4,352,915.4z"
	/>
<path class="st1" d="M1585.6,848.9c10.3,0,20.5,0,30.8,0c7.5,0,14.8,0.9,22.1,2.8c6.7,1.7,13,4.3,18.7,8.3
	c10.3,7.2,16.5,16.9,18,29.4c0.2,1.4,0.4,2.8,0.6,4.2c0.1,1.2,0.3,2.4,0.2,3.6c-0.5,6.4-0.8,12.9-2.7,19.1
	c-4.5,15.2-14,26.1-28.4,32.6c-1.1,0.5-2.2,0.9-3.4,1.4c-2.9,1.3-3.2,1.9-1.8,5.1c0.8,1.8,1.7,3.7,2.5,5.5
	c8.7,18.2,17.4,36.3,26,54.5c0.7,1.4,1.2,3,1.8,4.5c0.3,0.7-0.4,1.7-1.1,1.9c-0.8,0.1-1.6,0.3-2.4,0.4c-2,0.1-4,0.1-6,0.1
	c-14.9,0-29.8,0-44.7,0c-2.2,0-4.4-0.2-6.6-0.4c-0.8-0.1-1.5-0.6-1.9-1.3c-0.7-1.2-1.3-2.5-1.8-3.8c-6.1-16.4-12.3-32.8-18.4-49.2
	c-0.8-2.3-1.7-4.5-2.7-6.7c-0.5-1.2-1.6-1.8-2.9-1.8c-0.8,0-1.6,0-2.4,0.1c-0.8,0.1-1.6,0.5-1.8,1.4c-0.5,1.8-1,3.5-1.3,5.3
	c-2.6,15.3-5.1,30.6-7.7,45.8c-0.4,2.6-0.9,5.1-1.5,7.7c-0.3,1.5-1.4,2.5-2.9,2.7c-1.6,0.2-3.2,0.3-4.8,0.3c-13.1,0-26.2,0-39.3,0
	c-1.4,0-2.8-0.1-4.2-0.2c-2.5-0.2-3.4-1.5-3.1-4.1c0.1-0.6,0.2-1.2,0.3-1.8c3.5-20.2,7.1-40.4,10.6-60.6c2.1-11.9,4.3-23.8,6.4-35.7
	c2.3-12.9,4.5-25.8,6.8-38.6c1.6-8.9,3.1-17.8,4.7-26.7c0.2-1.2,0.5-2.3,0.9-3.5c0.3-0.8,0.9-1.4,1.8-1.5c2-0.2,4-0.4,6-0.4
	c8.9,0,17.7,0,26.6,0C1579.6,848.9,1582.6,848.9,1585.6,848.9L1585.6,848.9z M1592.5,923C1592.5,923,1592.5,923.1,1592.5,923
	c2,0,4-0.1,6-0.3c2.2-0.2,4.4-0.6,6.5-1c2.6-0.4,5-1.4,7.3-2.6c6.6-3.4,8.6-12.5,5.2-18.9c-0.9-1.6-2.2-2.9-3.8-3.8
	c-2-1.1-4-1.7-6.2-2.1c-4.8-0.9-9.5-1.2-14.4-1c-3.2,0.1-3.8,0.6-4.6,3.6c-0.2,0.8-0.4,1.5-0.6,2.3c-1,5.7-1.8,11.5-2.9,17.2
	c-1.2,6.2-0.4,6.4,5.5,6.4C1591.3,923,1591.9,923,1592.5,923z"/>
<path class="st1" d="M1440.7,848.9c7,0,14.1,0,21.1,0c1.6,0,3.2,0,4.8,0.1c3.7,0.2,4.5,0.8,5.1,4.6c2,11.3,4,22.6,6,33.9
	c2.3,13.1,4.6,26.1,6.9,39.2c1.7,9.9,3.4,19.8,5.1,29.7c1.8,10.3,3.6,20.6,5.4,30.9c1.7,9.9,3.5,19.8,5.2,29.7c0.6,3.6-0.3,4.8-4,5
	c-1.6,0.1-3.2,0.1-4.8,0.1c-13.5,0-27,0-40.5,0c-1.8,0-3.6,0-5.4-0.2c-2.4-0.2-3.3-0.9-3.7-3.2c-0.4-2.2-0.8-4.4-1.1-6.5
	c-0.5-3.6-1-7.2-1.5-10.8c-0.2-1.2-0.5-2.4-0.9-3.5c-0.3-1.1-1.2-1.6-2.2-1.7c-1-0.1-2-0.2-3-0.2c-15.5,0-31,0-46.5,0
	c-0.6,0-1.2,0-1.8,0c-1.7,0-3.1,0.6-4,2.2c-0.8,1.4-1.6,2.8-2.4,4.2c-2.2,4.1-4.4,8.1-6.7,12.2c-4.3,7.9-3.3,7.3-12.6,7.3
	c-9.7,0.1-19.3,0-29,0c-6,0-12.1,0-18.1,0c-1.6,0-3.2-0.3-4.8-0.4c-0.7-0.1-1.3-1.3-1-1.9c0.5-1.1,1-2.2,1.6-3.2
	c4.6-7.6,9.3-15.1,13.9-22.6c21.5-35,43-70,64.5-105c6.8-11.1,13.7-22.3,20.6-33.4c0.5-0.9,1.1-1.7,1.6-2.6c1.4-2.9,3.5-4,6.8-4
	C1423.8,849.1,1432.2,849,1440.7,848.9C1440.7,849,1440.7,848.9,1440.7,848.9z M1418.8,952.6c0,0,0,0.1,0,0.1c2.8,0,5.6,0,8.5,0
	c1.4,0,2.8-0.2,4.2-0.4c1.2-0.2,2.1-1.3,2-2.6c0-0.8-0.1-1.6-0.2-2.4c-1.1-10-2.2-20-3.4-30c-0.2-1.6-0.5-3.2-0.9-4.7
	c-0.1-0.3-0.5-0.9-0.7-0.9c-0.5,0-1.3,0.2-1.5,0.6c-0.9,1.3-1.8,2.7-2.5,4.1c-3.4,6.1-6.9,12.3-10.3,18.5c-2.4,4.4-4.9,8.8-7.3,13.2
	c-0.5,0.9-0.7,1.9-0.9,2.8c-0.1,0.3,0.3,0.8,0.5,1c0.7,0.3,1.5,0.7,2.3,0.7C1411.9,952.6,1415.4,952.6,1418.8,952.6z"/>
<path class="st1" d="M1262.8,844.3c3,0,6-0.1,9.1,0c14.1,0.7,27.3,4.5,39.7,11.3c3.5,1.9,6.9,4.1,10,6.7c1.5,1.3,3,2.7,4.4,4.2
	c0.9,1,1,2.3,0.2,3.3c-0.9,1.1-1.9,2.1-2.8,3.1c-7.4,7.7-14.9,15.3-22.3,23c-2.5,2.6-5,5.2-7.5,7.8c-1.1,1.2-2.3,2.2-3.5,3.3
	c-0.9,0.8-1.9,0.8-2.7,0.1c-0.5-0.4-0.9-0.8-1.3-1.2c-4.1-4.4-9.3-7-15.1-8.3c-6.8-1.6-13.6-1.7-20.3,0.1c-8.5,2.2-15.3,7-20.7,13.9
	c-4.7,6-7.6,12.8-9.2,20.2c-0.8,3.5-1.3,7.1-1.4,10.8c-0.1,5.7,0.9,11.2,3.5,16.4c4.7,9.3,12.4,14.1,22.5,15c3.6,0.3,7.2,0.2,10.9,0
	c4.3-0.2,8.3-1.7,12.1-3.5c3.7-1.7,7.1-3.8,10.3-6.3c0.9-0.7,2-1.4,3-2c0.5-0.3,1.2-0.2,1.7,0.3c0.7,0.7,1.4,1.5,1.9,2.3
	c2.4,3.5,4.7,7,7.1,10.5c4.8,7.2,9.7,14.4,14.5,21.6c1,1.5,1.9,3.1,2.8,4.7c0.2,0.4,0.1,1.3-0.3,1.6c-1.3,1.3-2.6,2.5-4,3.6
	c-10.6,8.4-22.6,13.8-35.7,17.1c-6.3,1.6-12.6,2.4-19,3.3c-1.2,0.2-2.4,0.1-3.6,0.1c-3.4,0-6.8,0.1-10.3,0
	c-12.4-0.2-24.4-2.4-35.9-7.3c-20.6-8.7-34-23.8-40.1-45.4c-1.5-5.2-2.5-10.6-2.7-16c0-1.2-0.1-2.4-0.3-3.6c-0.5-3.2-0.5-6.4,0-9.6
	c0.2-1.2,0.3-2.4,0.3-3.6c0.8-16.8,5.5-32.5,14.1-47c15.3-26,38.1-42.1,67.5-48.8c5.5-1.2,11.1-1.9,16.8-1.9c2.2,0,4.4,0,6.6,0
	C1262.8,844.2,1262.8,844.2,1262.8,844.3z"/>
<path class="st0" d="M1357.5,345.6c-3.7,0-7.7,0.3-11.7-0.1c-10.2-1-20.5-0.4-30.8-1c-4.6-0.3-9.3,0-13.9-0.1c-4.4,0-8.8,0-13.3-0.6
	c-2-0.3-4-0.2-6-0.2c-16.1-0.2-32.2-0.3-48.3-0.5c-1,0-2-0.1-3-0.1c-5-0.2-10.1-0.6-15.1-0.6c-14.9-0.2-29.8-0.3-44.7-0.5
	c-1,0-2,0-3-0.2c-0.7-0.2-1.6-0.5-2.1-1.1c-2-2.5-3.9-5.1-5.2-8.1c-0.3-0.6,0.4-1.7,1.1-1.8c0.2,0,0.4-0.1,0.6-0.1
	c7.8-0.1,15.7-0.3,23.5,0.3c1.8,0.1,3.6,0.2,5.4,0.3c9.9,0,19.7,0.1,29.6,0.5c7.6,0.3,15.3,0.1,22.9,0.2c2.2,0,4.4,0.3,6.6,0.4
	c2.2,0.1,4.4,0.2,6.6,0.2c8.1,0,16.1,0.1,24.2,0.5c4.8,0.2,9.7,0,14.5,0.1c4.6,0,9.3-0.1,13.9,0.5c1.8,0.2,3.6,0.1,5.4,0.2
	c6.6,0.2,13.3,0.4,19.9,0.5c2.4,0,4.8,0.4,7.2-0.4c0.2-0.1,0.4-0.2,0.4-0.4c0-0.4,0.1-0.9-0.1-1.1c-0.3-0.5-0.8-0.9-1.3-1.2
	c-2.1-1.2-4.2-2.4-6.4-3.5c-9-4.6-18.3-8.4-27.8-11.8c-17.7-6.3-35.7-11.1-54.1-14.9c-10.3-2.1-20.5-3.9-30.9-5.6
	c-7.5-1.2-15.2-2-22.7-2.9c-5.6-0.7-11.2-1.3-16.8-1.9c-0.2,0-0.4-0.1-0.6-0.1c-8.2-0.3-16.4-1.7-24.7-1.7c-0.8,0-1.6,0-2.4-0.1
	c-7.6-1.1-15.2-1-22.9-1.1c-0.8,0-1.6,0.1-2.4-0.1c-0.9-0.3-2.1-0.5-2.7-1.2c-2.5-2.6-4.8-5.4-7.1-8.2c-0.3-0.4,0.1-1.4,0.5-1.5
	c0.4-0.1,0.8-0.2,1.2-0.3c0.8-0.1,1.6-0.1,2.4-0.1c8.4,0.1,16.9,0.1,25.3,1c4.2,0.5,8.4,0.3,12.7,0.6c6.8,0.5,13.6,1.1,20.4,1.7
	c0.8,0.1,1.6,0.2,2.4,0.2c10.2,0.7,20.4,2.1,30.6,3.5c10.8,1.4,21.5,3.2,32.2,5.2c23.8,4.5,47.1,10.5,69.7,19.2
	c10,3.8,19.7,8.2,29,13.4c4.9,2.7,9.7,5.8,14.3,9c5.3,3.8,9.7,8.4,13.9,13.4c0.2,0.3,0.4,0.7,0.5,1.1c0.2,0.4-0.2,1.4-0.8,1.4
	c-1.6,0.1-3.2,0.3-4.8,0.3C1365.5,345.9,1361.7,345.7,1357.5,345.6z"/>
<path class="st0" d="M1718.9,342.4c-7.2,0-14.5,0.1-21.8,0c-9.7-0.1-19.3-0.3-29-0.4c-1.4,0-2.8-0.2-4.2-0.3c-0.7-0.1-1.2-1.4-0.8-2
	c0.6-0.8,1.1-1.6,1.8-2.4c7.8-8.8,16.5-16.5,25.8-23.7c11.3-8.8,23.3-16.5,36.2-22.9c8.5-4.2,17.3-7.7,26.4-10.3
	c1-0.3,1.9-0.5,2.9-0.7c1-0.1,2,0.1,2.8,0.7c1.4,1.2,2.8,2.3,4,3.6c1,1.1,3,2,2.3,3.9c-0.5,1.4-2.3,1.4-3.6,1.8
	c-20.3,4.9-38.4,14.4-55.4,26.2c-4.3,3-8.4,6.2-12.6,9.4c-1.4,1.1-2.7,2.4-4,3.7c-0.3,0.3,0.1,1.4,0.6,1.5c0.6,0.2,1.2,0.4,1.7,0.4
	c1.8,0.1,3.6,0.1,5.4,0.1c9.1,0,18.1,0,27.2,0c2.8,0,5.6-0.3,8.4-0.4c4.2-0.1,8.5-0.2,12.7-0.2c7.3,0,14.5-0.5,21.7-1
	c4.8-0.3,9.6-0.5,14.5-0.9c2.8-0.2,5.6-0.5,8.4-0.7c0.4,0,0.8,0,1.2-0.1c3.3-0.5,5.4,1,6.5,4c0.4,1.1,1,2.2,1.4,3.3
	c0.6,1.6-0.2,2.8-1.9,3c-6.4,0.8-12.8,1.3-19.2,1.9c-8.2,0.7-16.5,0.8-24.7,1.3c-10.1,0.6-20.1,0.5-30.2,0.6c-1.6,0-3.2,0.1-4.8,0.2
	C1718.9,342.4,1718.9,342.4,1718.9,342.4z"/>
</svg>
